<mxfile host="Electron" modified="2024-02-14T14:31:10.191Z" agent="Mozilla/5.0 (Windows NT 10.0; Win64; x64) AppleWebKit/537.36 (KHTML, like Gecko) draw.io/22.0.3 Chrome/114.0.5735.289 Electron/25.8.4 Safari/537.36" etag="ZYymCwAQUlAmXXQV9KZz" version="22.0.3" type="device">
  <diagram name="Pagina-1" id="YzWQodzD78JNeDAUSXoz">
    <mxGraphModel dx="4052" dy="1553" grid="1" gridSize="10" guides="1" tooltips="1" connect="1" arrows="1" fold="1" page="1" pageScale="1" pageWidth="827" pageHeight="1169" math="0" shadow="0">
      <root>
        <mxCell id="0" />
        <mxCell id="1" parent="0" />
        <mxCell id="W4hK1kKLMmYzM6_NeAK5-2" value="&lt;font style=&quot;font-size: 12px;&quot;&gt;Europa tra Seicento e Settecento&lt;/font&gt;" style="rounded=1;whiteSpace=wrap;html=1;" vertex="1" parent="1">
          <mxGeometry x="580" y="30" width="300" height="70" as="geometry" />
        </mxCell>
        <mxCell id="W4hK1kKLMmYzM6_NeAK5-3" value="Premesse:&lt;br&gt;- Periodo di pace in Europa&lt;br&gt;- Epoca di contrasti religiosi (Guerra dei trent&#39;anni = protestanti e cattolici)&lt;br&gt;e problemi grossi a livello economico (peste)" style="rounded=0;whiteSpace=wrap;html=1;" vertex="1" parent="1">
          <mxGeometry x="635" y="140" width="190" height="120" as="geometry" />
        </mxCell>
        <mxCell id="W4hK1kKLMmYzM6_NeAK5-4" value="Situazioni in Europa (Francia):&lt;br&gt;&lt;br&gt;Premesse:&lt;br&gt;&lt;br&gt;- Rivolte tra contadini e nobili&lt;br&gt;- Contrasti interni tra i nobili&lt;br&gt;&lt;br&gt;Figure chiave:&lt;br&gt;- Richelieu: stratega e consigliere, schierò a Francia con i protestanti&lt;br&gt;- Mazzarino: ministro, contrastò la nobiltà&lt;br&gt;&lt;br&gt;- Morto Mazzarino, al potere&amp;nbsp;&lt;br&gt;&amp;nbsp;(Assolutismo) = Re Luigi XIV/Re Sole (70 anni di regno)&lt;br style=&quot;border-color: var(--border-color);&quot;&gt;- Concentrava tutti i poteri su di lui&lt;br&gt;- Costruì la reggia di Versailles per allontanare i nobili dalle decisioni politiche (obbligati a stare lì)" style="rounded=0;whiteSpace=wrap;html=1;" vertex="1" parent="1">
          <mxGeometry x="-20" y="390" width="390" height="240" as="geometry" />
        </mxCell>
        <mxCell id="W4hK1kKLMmYzM6_NeAK5-5" value="" style="endArrow=classic;startArrow=classic;html=1;rounded=0;exitX=0.5;exitY=0;exitDx=0;exitDy=0;" edge="1" parent="1" source="W4hK1kKLMmYzM6_NeAK5-3" target="W4hK1kKLMmYzM6_NeAK5-2">
          <mxGeometry width="50" height="50" relative="1" as="geometry">
            <mxPoint x="706.25" y="260" as="sourcePoint" />
            <mxPoint x="756.25" y="210" as="targetPoint" />
          </mxGeometry>
        </mxCell>
        <mxCell id="W4hK1kKLMmYzM6_NeAK5-6" value="" style="endArrow=none;html=1;rounded=0;exitX=0.5;exitY=0;exitDx=0;exitDy=0;" edge="1" parent="1" source="W4hK1kKLMmYzM6_NeAK5-4" target="W4hK1kKLMmYzM6_NeAK5-3">
          <mxGeometry width="50" height="50" relative="1" as="geometry">
            <mxPoint x="390" y="540" as="sourcePoint" />
            <mxPoint x="440" y="490" as="targetPoint" />
          </mxGeometry>
        </mxCell>
        <mxCell id="W4hK1kKLMmYzM6_NeAK5-7" value="Situazioni in Europa (Inghilterra):&lt;br&gt;&lt;br&gt;Premesse:&lt;br&gt;- Re costretto a dividere i poteri con il parlamento&lt;br&gt;- Guerra con il parlamento (Camere dei Lord e dei Comuni) per motivi di strapotere del re&lt;br&gt;- Conflitto in Scozia per il potere protestante (re voleva imporre chiesa anglicana) e conflitto tra cattolici e puritani (cattolici puri)&lt;br&gt;- Società gerarchica divisa sulla base dell&#39;importanza&lt;br&gt;&lt;br&gt;" style="rounded=0;whiteSpace=wrap;html=1;" vertex="1" parent="1">
          <mxGeometry x="440" y="390" width="360" height="230" as="geometry" />
        </mxCell>
        <mxCell id="W4hK1kKLMmYzM6_NeAK5-8" value="Conseguenze:&lt;br&gt;- Ministro Colbert: pagare tasse per nobili e clero&lt;br&gt;- Guerre religiose tra cattolici ed ugonotti e giansenisti (minoranze protestanti)&lt;br&gt;- Limitare il potere dei parlamenti&lt;br&gt;- Obbligo di conversione religiosa e nascita delle accademie di cultura francese" style="rounded=0;whiteSpace=wrap;html=1;" vertex="1" parent="1">
          <mxGeometry x="20" y="720" width="290" height="170" as="geometry" />
        </mxCell>
        <mxCell id="W4hK1kKLMmYzM6_NeAK5-9" value="" style="endArrow=none;html=1;rounded=0;exitX=0.5;exitY=0;exitDx=0;exitDy=0;entryX=0.472;entryY=1.01;entryDx=0;entryDy=0;entryPerimeter=0;" edge="1" parent="1" source="W4hK1kKLMmYzM6_NeAK5-8" target="W4hK1kKLMmYzM6_NeAK5-4">
          <mxGeometry width="50" height="50" relative="1" as="geometry">
            <mxPoint x="390" y="600" as="sourcePoint" />
            <mxPoint x="440" y="550" as="targetPoint" />
          </mxGeometry>
        </mxCell>
        <mxCell id="W4hK1kKLMmYzM6_NeAK5-12" value="Conseguenze:&lt;br style=&quot;border-color: var(--border-color);&quot;&gt;- Rivolta contro i sovrani Stuart&lt;br style=&quot;border-color: var(--border-color);&quot;&gt;- Guerra civile che dura sette anni (Parlamento + popolo) vs Re&lt;br style=&quot;border-color: var(--border-color);&quot;&gt;- Proclamazione repubblica con Cromwell (Commonwealth)&lt;br style=&quot;border-color: var(--border-color);&quot;&gt;- Dittatura militare (per evitare anarchia) ed espansionismo coloniale&lt;br style=&quot;border-color: var(--border-color);&quot;&gt;- Commerci vantaggiosi e accordi militari/coloniali&lt;br style=&quot;border-color: var(--border-color);&quot;&gt;&lt;br style=&quot;border-color: var(--border-color);&quot;&gt;Com&#39;è finita:&lt;br style=&quot;border-color: var(--border-color);&quot;&gt;- Il parlamento ripristinerà la Monarchia con Carlo II Stuart&lt;br style=&quot;border-color: var(--border-color);&quot;&gt;- 1689: Dichiarazione dei diritti: il Re riconosce i cittadini e il parlamento (repubblica costituzionale) - potere limitato da altre istituzioni&lt;br style=&quot;border-color: var(--border-color);&quot;&gt;- Libertà politiche e Atto di Tolleranza nei confronti di altre religioni&lt;br style=&quot;border-color: var(--border-color);&quot;&gt;- 1707: Regno Unito di Gran Bretagna (UK + Scozia + Irlanda)" style="rounded=0;whiteSpace=wrap;html=1;" vertex="1" parent="1">
          <mxGeometry x="414" y="695" width="450" height="220" as="geometry" />
        </mxCell>
        <mxCell id="W4hK1kKLMmYzM6_NeAK5-13" value="" style="endArrow=none;html=1;rounded=0;entryX=0.472;entryY=1.01;entryDx=0;entryDy=0;entryPerimeter=0;" edge="1" parent="1" source="W4hK1kKLMmYzM6_NeAK5-12">
          <mxGeometry width="50" height="50" relative="1" as="geometry">
            <mxPoint x="630" y="680" as="sourcePoint" />
            <mxPoint x="630" y="620" as="targetPoint" />
          </mxGeometry>
        </mxCell>
        <mxCell id="W4hK1kKLMmYzM6_NeAK5-14" value="Situazioni in Europa (Russia):&lt;br&gt;&lt;br&gt;Premesse:&lt;br&gt;- Chiuso nelle proprie tradizioni&amp;nbsp;&lt;br&gt;&lt;br&gt;Conseguenze:&amp;nbsp;&lt;br&gt;- Dinastia dei Romanov (con Pietro il Grande) che tentò di modificare questa situazioni&lt;br&gt;- Occidentalizzazione della Russia: riforme di modernizzazione industriale e centralizzazione dello Stato nei confronti del popolo e delle minoranze&lt;br&gt;- Di fatto: dittatura = stato assoluto" style="rounded=0;whiteSpace=wrap;html=1;" vertex="1" parent="1">
          <mxGeometry x="890" y="390" width="360" height="230" as="geometry" />
        </mxCell>
        <mxCell id="W4hK1kKLMmYzM6_NeAK5-15" value="Situazioni in Europa (Italia):&lt;br&gt;&lt;br&gt;Premesse:&lt;br&gt;- Pace da un secolo e mezzo fino al 1713&lt;br&gt;- Periodo di carenze/pestilenze/carestie&lt;br&gt;&lt;br&gt;Conseguenze:&lt;br&gt;- Crisi economica sull&#39;intera penisola&lt;br&gt;- Tanti stati frammentati e indipendenti&lt;br&gt;- Ma anche politica: la presenza spagnola influenzò tutti gli altri stati&lt;br&gt;- Perde la sua posizione centrale come stato culturalmente rilevante" style="rounded=0;whiteSpace=wrap;html=1;" vertex="1" parent="1">
          <mxGeometry x="1280" y="390" width="360" height="230" as="geometry" />
        </mxCell>
        <mxCell id="W4hK1kKLMmYzM6_NeAK5-16" value="" style="endArrow=none;html=1;rounded=0;entryX=0.421;entryY=1.011;entryDx=0;entryDy=0;entryPerimeter=0;" edge="1" parent="1" target="W4hK1kKLMmYzM6_NeAK5-3">
          <mxGeometry width="50" height="50" relative="1" as="geometry">
            <mxPoint x="680" y="390" as="sourcePoint" />
            <mxPoint x="730" y="340" as="targetPoint" />
          </mxGeometry>
        </mxCell>
        <mxCell id="W4hK1kKLMmYzM6_NeAK5-19" value="" style="endArrow=none;html=1;rounded=0;entryX=0.75;entryY=1;entryDx=0;entryDy=0;exitX=0.5;exitY=0;exitDx=0;exitDy=0;" edge="1" parent="1" source="W4hK1kKLMmYzM6_NeAK5-14" target="W4hK1kKLMmYzM6_NeAK5-3">
          <mxGeometry width="50" height="50" relative="1" as="geometry">
            <mxPoint x="690" y="400" as="sourcePoint" />
            <mxPoint x="725" y="271" as="targetPoint" />
          </mxGeometry>
        </mxCell>
        <mxCell id="W4hK1kKLMmYzM6_NeAK5-20" value="" style="endArrow=none;html=1;rounded=0;exitX=0.475;exitY=0.004;exitDx=0;exitDy=0;exitPerimeter=0;" edge="1" parent="1" source="W4hK1kKLMmYzM6_NeAK5-15" target="W4hK1kKLMmYzM6_NeAK5-3">
          <mxGeometry width="50" height="50" relative="1" as="geometry">
            <mxPoint x="1080" y="400" as="sourcePoint" />
            <mxPoint x="788" y="270" as="targetPoint" />
          </mxGeometry>
        </mxCell>
        <mxCell id="W4hK1kKLMmYzM6_NeAK5-21" value="Esempio di conflitto rilevante:&lt;br&gt;&lt;br&gt;- Guerra dei Sette Anni (tra Francia ed Inghilttera)&lt;br&gt;&lt;br&gt;Fazioni:&lt;br&gt;- Francia, Austria, Svezia, Russia&lt;br&gt;- Inghilterra e Prussia&lt;br&gt;&lt;br&gt;Motivi:&lt;br&gt;- Egemonia (dominio) in termini di influenze politica e coloniale&lt;br&gt;- Conflitti interni agli stati (dentro l&#39;impero austriaco)" style="rounded=1;whiteSpace=wrap;html=1;" vertex="1" parent="1">
          <mxGeometry x="20" y="30" width="320" height="210" as="geometry" />
        </mxCell>
      </root>
    </mxGraphModel>
  </diagram>
</mxfile>
